<svg xmlns="http://www.w3.org/2000/svg" viewBox="0 0 200 200"><path d="M 20 20 Q 50 16 80 24 Q 110 34 140 21 Q 170 11 180 19 Z" fill="none" stroke="#333" stroke-width="2" stroke-linecap="round" stroke-linejoin="round"/><path d="M 25 40 Q 55 46 85 39 Q 115 31 145 43 Q 175 49 180 41 Z" fill="none" stroke="#333" stroke-width="2" stroke-linecap="round" stroke-linejoin="round"/><path d="M 21 60 Q 51 66 81 59 Q 111 51 141 63 Q 171 69 181 61 Z" fill="none" stroke="#333" stroke-width="2" stroke-linecap="round" stroke-linejoin="round"/><ellipse cx="61" cy="31" rx="8" ry="12" fill="none" stroke="#333" stroke-width="2" stroke-linecap="round" stroke-linejoin="round"/><ellipse cx="71" cy="36" rx="8" ry="12" fill="none" stroke="#333" stroke-width="2" stroke-linecap="round" stroke-linejoin="round"/><ellipse cx="101" cy="26" rx="8" ry="12" fill="none" stroke="#333" stroke-width="2" stroke-linecap="round" stroke-linejoin="round"/><ellipse cx="111" cy="31" rx="8" ry="12" fill="none" stroke="#333" stroke-width="2" stroke-linecap="round" stroke-linejoin="round"/><ellipse cx="76" cy="51" rx="8" ry="12" fill="none" stroke="#333" stroke-width="2" stroke-linecap="round" stroke-linejoin="round"/><ellipse cx="86" cy="56" rx="8" ry="12" fill="none" stroke="#333" stroke-width="2" stroke-linecap="round" stroke-linejoin="round"/><ellipse cx="131" cy="46" rx="8" ry="12" fill="none" stroke="#333" stroke-width="2" stroke-linecap="round" stroke-linejoin="round"/><ellipse cx="141" cy="51" rx="8" ry="12" fill="none" stroke="#333" stroke-width="2" stroke-linecap="round" stroke-linejoin="round"/><path d="M 20 130 Q 50 136 80 129 Q 110 121 140 133 Q 170 139 180 131 Z" fill="none" stroke="#333" stroke-width="2" stroke-linecap="round" stroke-linejoin="round"/><path d="M 25 150 Q 55 156 85 149 Q 115 141 145 153 Q 175 159 180 151 Z" fill="none" stroke="#333" stroke-width="2" stroke-linecap="round" stroke-linejoin="round"/><path d="M 21 170 Q 51 176 81 169 Q 111 161 141 173 Q 171 179 181 171 Z" fill="none" stroke="#333" stroke-width="2" stroke-linecap="round" stroke-linejoin="round"/><path d="M 160 140 Q 170 135 175 145 Q 170 150 160 140 Z" fill="none" stroke="#333" stroke-width="2" stroke-linecap="round" stroke-linejoin="round"/><path d="M 155 155 Q 165 150 170 160 Q 165 165 155 155 Z" fill="none" stroke="#333" stroke-width="2" stroke-linecap="round" stroke-linejoin="round"/><path d="M 150 170 Q 160 165 165 175 Q 160 180 150 170 Z" fill="none" stroke="#333" stroke-width="2" stroke-linecap="round" stroke-linejoin="round"/><line x1="100" y1="80" x2="100" y2="120" fill="none" stroke="#333" stroke-width="2" stroke-linecap="round" stroke-linejoin="round"/><polygon points="100 120, 95 110, 105 110" fill="none" stroke="#333" stroke-width="2" stroke-linecap="round" stroke-linejoin="round"/><rect x="106" y="94" width="40" height="15" fill="none" stroke="#333" stroke-width="2" stroke-linecap="round" stroke-linejoin="round"/></svg>