<svg xmlns="http://www.w3.org/2000/svg" viewBox="0 0 200 200"><circle cx="100.5" cy="160.5" r="12" fill="none" stroke="#333" stroke-width="2" stroke-linecap="round" stroke-linejoin="round"/><line x1="100.5" y1="172.5" x2="100.5" y2="185.5" fill="none" stroke="#333" stroke-width="2" stroke-linecap="round" stroke-linejoin="round"/><line x1="97.5" y1="175.5" x2="88.5" y2="168.5" fill="none" stroke="#333" stroke-width="2" stroke-linecap="round" stroke-linejoin="round"/><line x1="103.5" y1="175.5" x2="112.5" y2="168.5" fill="none" stroke="#333" stroke-width="2" stroke-linecap="round" stroke-linejoin="round"/><line x1="98.5" y1="185.5" x2="90.5" y2="197.5" fill="none" stroke="#333" stroke-width="2" stroke-linecap="round" stroke-linejoin="round"/><line x1="102.5" y1="185.5" x2="110.5" y2="197.5" fill="none" stroke="#333" stroke-width="2" stroke-linecap="round" stroke-linejoin="round"/><circle cx="100.5" cy="40.5" r="20" fill="none" stroke="#333" stroke-width="2" stroke-linecap="round" stroke-linejoin="round"/><line x1="100.5" y1="20.5" x2="100.5" y2="15.5" fill="none" stroke="#333" stroke-width="2" stroke-linecap="round" stroke-linejoin="round"/><line x1="110.5" y1="23.2" x2="113.0" y2="18.9" fill="none" stroke="#333" stroke-width="2" stroke-linecap="round" stroke-linejoin="round"/><line x1="120.5" y1="40.5" x2="125.5" y2="40.5" fill="none" stroke="#333" stroke-width="2" stroke-linecap="round" stroke-linejoin="round"/><line x1="110.5" y1="57.8" x2="113.0" y2="62.1" fill="none" stroke="#333" stroke-width="2" stroke-linecap="round" stroke-linejoin="round"/><line x1="90.5" y1="57.8" x2="88.0" y2="62.1" fill="none" stroke="#333" stroke-width="2" stroke-linecap="round" stroke-linejoin="round"/><line x1="80.5" y1="40.5" x2="75.5" y2="40.5" fill="none" stroke="#333" stroke-width="2" stroke-linecap="round" stroke-linejoin="round"/><line x1="90.5" y1="23.2" x2="88.0" y2="18.9" fill="none" stroke="#333" stroke-width="2" stroke-linecap="round" stroke-linejoin="round"/><path d="M 80.5 160.5 Q 50.5 100.5 80.5 40.5 L 81 40.5 Q 51 100.5 81 160.5 Z" fill="none" stroke="#333" stroke-width="2" stroke-linecap="round" stroke-linejoin="round"/><polygon points="80.5,40.5 77.5,47.5 83.5,47.5" fill="#333" stroke="none"/><line x1="73.5" y1="145.5" x2="77.5" y2="145.5" fill="none" stroke="#333" stroke-width="2" stroke-linecap="round" stroke-linejoin="round"/><line x1="65.5" y1="128.5" x2="69.5" y2="128.5" fill="none" stroke="#333" stroke-width="2" stroke-linecap="round" stroke-linejoin="round"/><line x1="58.5" y1="98.5" x2="58.5" y2="102.5" fill="none" stroke="#333" stroke-width="2" stroke-linecap="round" stroke-linejoin="round"/><line x1="65.5" y1="72.5" x2="69.5" y2="72.5" fill="none" stroke="#333" stroke-width="2" stroke-linecap="round" stroke-linejoin="round"/><line x1="73.5" y1="55.5" x2="77.5" y2="55.5" fill="none" stroke="#333" stroke-width="2" stroke-linecap="round" stroke-linejoin="round"/><line x1="79.5" y1="43.5" x2="81.5" y2="43.5" fill="none" stroke="#333" stroke-width="2" stroke-linecap="round" stroke-linejoin="round"/><path d="M 120.5 40.5 Q 150.5 100.5 120.5 160.5 L 120 160.5 Q 149.5 100.5 120 40.5 Z" fill="none" stroke="#333" stroke-width="2" stroke-linecap="round" stroke-linejoin="round"/><polygon points="120.5,160.5 117.5,153.5 123.5,153.5" fill="#333" stroke="none"/><line x1="123.5" y1="55.5" x2="127.5" y2="55.5" fill="none" stroke="#333" stroke-width="2" stroke-linecap="round" stroke-linejoin="round"/><line x1="131.5" y1="72.5" x2="135.5" y2="72.5" fill="none" stroke="#333" stroke-width="2" stroke-linecap="round" stroke-linejoin="round"/><line x1="142.5" y1="98.5" x2="142.5" y2="102.5" fill="none" stroke="#333" stroke-width="2" stroke-linecap="round" stroke-linejoin="round"/><line x1="131.5" y1="128.5" x2="135.5" y1="128.5" fill="none" stroke="#333" stroke-width="2" stroke-linecap="round" stroke-linejoin="round"/><line x1="123.5" y1="145.5" x2="127.5" y2="145.5" fill="none" stroke="#333" stroke-width="2" stroke-linecap="round" stroke-linejoin="round"/><line x1="119.5" y1="157.5" x2="123.5" y2="157.5" fill="none" stroke="#333" stroke-width="2" stroke-linecap="round" stroke-linejoin="round"/></svg>