<svg xmlns="http://www.w3.org/2000/svg" viewBox="0 0 200 200"><line x1="100" y1="54" x2="100" y2="146" fill="none" stroke="#333" stroke-width="2" stroke-linecap="round" stroke-linejoin="round"/><rect x="33" y="58" width="65" height="85" transform="rotate(-5 100 100)" fill="none" stroke="#333" stroke-width="2" stroke-linecap="round" stroke-linejoin="round"/><rect x="102" y="58" width="65" height="85" transform="rotate(5 100 100)" fill="none" stroke="#333" stroke-width="2" stroke-linecap="round" stroke-linejoin="round"/><line x1="43" y1="73" x2="88" y2="73" transform="rotate(-5 100 100)" fill="none" stroke="#333" stroke-width="2" stroke-linecap="round" stroke-linejoin="round"/><line x1="43" y1="93" x2="88" y2="93" transform="rotate(-5 100 100)" fill="none" stroke="#333" stroke-width="2" stroke-linecap="round" stroke-linejoin="round"/><line x1="43" y1="113" x2="88" y2="113" transform="rotate(-5 100 100)" fill="none" stroke="#333" stroke-width="2" stroke-linecap="round" stroke-linejoin="round"/><line x1="43" y1="133" x2="88" y2="133" transform="rotate(-5 100 100)" fill="none" stroke="#333" stroke-width="2" stroke-linecap="round" stroke-linejoin="round"/><line x1="112" y1="73" x2="157" y2="73" transform="rotate(5 100 100)" fill="none" stroke="#333" stroke-width="2" stroke-linecap="round" stroke-linejoin="round"/><line x1="112" y1="93" x2="157" y2="93" transform="rotate(5 100 100)" fill="none" stroke="#333" stroke-width="2" stroke-linecap="round" stroke-linejoin="round"/><line x1="112" y1="113" x2="157" y2="113" transform="rotate(5 100 100)" fill="none" stroke="#333" stroke-width="2" stroke-linecap="round" stroke-linejoin="round"/><line x1="112" y1="133" x2="157" y2="133" transform="rotate(5 100 100)" fill="none" stroke="#333" stroke-width="2" stroke-linecap="round" stroke-linejoin="round"/><circle cx="100" cy="54" r="4" fill="none" stroke="#333" stroke-width="2" stroke-linecap="round" stroke-linejoin="round"/><circle cx="100" cy="146" r="4" fill="none" stroke="#333" stroke-width="2" stroke-linecap="round" stroke-linejoin="round"/></svg>