<svg xmlns="http://www.w3.org/2000/svg" viewBox="0 0 200 200"><line x1="99" y1="49" x2="217" y2="28" fill="none" stroke="#333" stroke-width="2" stroke-linecap="round" stroke-linejoin="round"/><line x1="99" y1="49" x2="203" y2="-9" fill="none" stroke="#333" stroke-width="2" stroke-linecap="round" stroke-linejoin="round"/><line x1="99" y1="49" x2="176" y2="-41" fill="none" stroke="#333" stroke-width="2" stroke-linecap="round" stroke-linejoin="round"/><line x1="99" y1="49" x2="140" y2="-62" fill="none" stroke="#333" stroke-width="2" stroke-linecap="round" stroke-linejoin="round"/><line x1="99" y1="49" x2="99" y2="-69" fill="none" stroke="#333" stroke-width="2" stroke-linecap="round" stroke-linejoin="round"/><line x1="99" y1="49" x2="58" y2="-62" fill="none" stroke="#333" stroke-width="2" stroke-linecap="round" stroke-linejoin="round"/><line x1="99" y1="49" x2="22" y2="-41" fill="none" stroke="#333" stroke-width="2" stroke-linecap="round" stroke-linejoin="round"/><line x1="99" y1="49" x2="-5" y2="-9" fill="none" stroke="#333" stroke-width="2" stroke-linecap="round" stroke-linejoin="round"/><rect x="17" y="52" width="77" height="147" fill="none" stroke="#333" stroke-width="2" stroke-linecap="round" stroke-linejoin="round"/><path d="M 17 52 A 38.5 38.5 0 0 1 94 52 Z" fill="none" stroke="#333" stroke-width="2" stroke-linecap="round" stroke-linejoin="round"/><circle cx="89" cy="126" r="5" fill="none" stroke="#333" stroke-width="2" stroke-linecap="round" stroke-linejoin="round"/><rect x="37" y="116" width="37" height="19" fill="none" stroke="#333" stroke-width="2" stroke-linecap="round" stroke-linejoin="round"/><rect x="107" y="53" width="77" height="146" fill="none" stroke="#333" stroke-width="2" stroke-linecap="round" stroke-linejoin="round"/><path d="M 107 53 A 38.5 38.5 0 0 1 184 53 Z" fill="none" stroke="#333" stroke-width="2" stroke-linecap="round" stroke-linejoin="round"/><circle cx="112" cy="126.5" r="5" fill="none" stroke="#333" stroke-width="2" stroke-linecap="round" stroke-linejoin="round"/><rect x="127" y="117" width="38" height="18" fill="none" stroke="#333" stroke-width="2" stroke-linecap="round" stroke-linejoin="round"/></svg>