<svg xmlns="http://www.w3.org/2000/svg" viewBox="0 0 200 200"><path d="M 30 170 Q 55 180 80 145 Q 105 105 130 110 Q 155 90 175 30" fill="none" stroke="#333" stroke-width="2" stroke-linecap="round" stroke-linejoin="round"/><circle cx="50" cy="140" r="8" fill="none" stroke="#333" stroke-width="2" stroke-linecap="round" stroke-linejoin="round"/><line x1="50" y1="140" x2="55" y2="155" fill="none" stroke="#333" stroke-width="2" stroke-linecap="round" stroke-linejoin="round"/><line x1="50" y1="145" x2="40" y2="140" fill="none" stroke="#333" stroke-width="2" stroke-linecap="round" stroke-linejoin="round"/><line x1="50" y1="145" x2="60" y2="140" fill="none" stroke="#333" stroke-width="2" stroke-linecap="round" stroke-linejoin="round"/><line x1="55" y1="155" x2="49" y2="160" fill="none" stroke="#333" stroke-width="2" stroke-linecap="round" stroke-linejoin="round"/><line x1="55" y1="155" x2="61" y2="160" fill="none" stroke="#333" stroke-width="2" stroke-linecap="round" stroke-linejoin="round"/><circle cx="90" cy="100" r="8" fill="none" stroke="#333" stroke-width="2" stroke-linecap="round" stroke-linejoin="round"/><line x1="90" y1="100" x2="90" y2="120" fill="none" stroke="#333" stroke-width="2" stroke-linecap="round" stroke-linejoin="round"/><line x1="90" y1="110" x2="86" y2="115" fill="none" stroke="#333" stroke-width="2" stroke-linecap="round" stroke-linejoin="round"/><line x1="90" y1="110" x2="94" y2="115" fill="none" stroke="#333" stroke-width="2" stroke-linecap="round" stroke-linejoin="round"/><line x1="90" y1="120" x2="85" y2="125" fill="none" stroke="#333" stroke-width="2" stroke-linecap="round" stroke-linejoin="round"/><line x1="90" y1="120" x2="95" y2="125" fill="none" stroke="#333" stroke-width="2" stroke-linecap="round" stroke-linejoin="round"/><circle cx="130" cy="70" r="8" fill="none" stroke="#333" stroke-width="2" stroke-linecap="round" stroke-linejoin="round"/><line x1="130" y1="70" x2="130" y2="85" fill="none" stroke="#333" stroke-width="2" stroke-linecap="round" stroke-linejoin="round"/><line x1="130" y1="75" x2="126" y2="65" fill="none" stroke="#333" stroke-width="2" stroke-linecap="round" stroke-linejoin="round"/><line x1="130" y1="75" x2="134" y2="65" fill="none" stroke="#333" stroke-width="2" stroke-linecap="round" stroke-linejoin="round"/><line x1="130" y1="85" x2="126" y2="90" fill="none" stroke="#333" stroke-width="2" stroke-linecap="round" stroke-linejoin="round"/><line x1="130" y1="85" x2="134" y2="90" fill="none" stroke="#333" stroke-width="2" stroke-linecap="round" stroke-linejoin="round"/><circle cx="160" cy="30" r="8" fill="none" stroke="#333" stroke-width="2" stroke-linecap="round" stroke-linejoin="round"/><line x1="160" y1="30" x2="160" y2="45" fill="none" stroke="#333" stroke-width="2" stroke-linecap="round" stroke-linejoin="round"/><line x1="160" y1="35" x2="156" y2="40" fill="none" stroke="#333" stroke-width="2" stroke-linecap="round" stroke-linejoin="round"/><line x1="160" y1="35" x2="164" y2="40" fill="none" stroke="#333" stroke-width="2" stroke-linecap="round" stroke-linejoin="round"/><line x1="160" y1="45" x2="156" y2="50" fill="none" stroke="#333" stroke-width="2" stroke-linecap="round" stroke-linejoin="round"/><line x1="160" y1="45" x2="164" y2="50" fill="none" stroke="#333" stroke-width="2" stroke-linecap="round" stroke-linejoin="round"/><line x1="160" y1="20" x2="160" y2="10" fill="none" stroke="#333" stroke-width="2" stroke-linecap="round" stroke-linejoin="round"/><line x1="160" y1="20" x2="155" y2="12" fill="none" stroke="#333" stroke-width="2" stroke-linecap="round" stroke-linejoin="round"/><line x1="160" y1="20" x2="165" y2="12" fill="none" stroke="#333" stroke-width="2" stroke-linecap="round" stroke-linejoin="round"/><line x1="160" y1="20" x2="152" y2="17" fill="none" stroke="#333" stroke-width="2" stroke-linecap="round" stroke-linejoin="round"/><line x1="160" y1="20" x2="168" y2="17" fill="none" stroke="#333" stroke-width="2" stroke-linecap="round" stroke-linejoin="round"/></svg>