<svg xmlns="http://www.w3.org/2000/svg" viewBox="0 0 200 200"><path d="M 101 141 C 51 121 49 69 99 68 C 151 71 149 122 101 141 Z" fill="none" stroke="#333" stroke-width="2" stroke-linecap="round" stroke-linejoin="round"/><path d="M 110 75 C 115 65 125 60 130 50 C 127 53 117 68 110 75 Z" fill="none" stroke="#333" stroke-width="2" stroke-linecap="round" stroke-linejoin="round"/><path d="M 140 100 C 150 90 160 95 170 100 C 165 103 155 108 140 100 Z" fill="none" stroke="#333" stroke-width="2" stroke-linecap="round" stroke-linejoin="round"/><path d="M 80 130 C 70 135 60 145 50 155 C 55 152 65 140 80 130 Z" fill="none" stroke="#333" stroke-width="2" stroke-linecap="round" stroke-linejoin="round"/><path d="M 60 100 C 50 90 40 95 30 100 C 35 103 45 108 60 100 Z" fill="none" stroke="#333" stroke-width="2" stroke-linecap="round" stroke-linejoin="round"/></svg>