<svg xmlns="http://www.w3.org/2000/svg" viewBox="0 0 200 200"><rect x="41" y="56" width="118" height="88" fill="none" stroke="#333" stroke-width="2" stroke-linecap="round" stroke-linejoin="round"/><line x1="48" y1="69" x2="150" y2="69" fill="none" stroke="#333" stroke-width="2" stroke-linecap="round" stroke-linejoin="round"/><line x1="48" y1="89" x2="150" y2="89" fill="none" stroke="#333" stroke-width="2" stroke-linecap="round" stroke-linejoin="round"/><line x1="48" y1="109" x2="150" y2="109" fill="none" stroke="#333" stroke-width="2" stroke-linecap="round" stroke-linejoin="round"/><line x1="48" y1="129" x2="150" y2="129" fill="none" stroke="#333" stroke-width="2" stroke-linecap="round" stroke-linejoin="round"/><line x1="60" y1="67" x2="64" y2="71" fill="none" stroke="#333" stroke-width="2" stroke-linecap="round" stroke-linejoin="round"/><line x1="60" y1="71" x2="64" y2="67" fill="none" stroke="#333" stroke-width="2" stroke-linecap="round" stroke-linejoin="round"/><line x1="90" y1="67" x2="94" y2="71" fill="none" stroke="#333" stroke-width="2" stroke-linecap="round" stroke-linejoin="round"/><line x1="90" y1="71" x2="94" y2="67" fill="none" stroke="#333" stroke-width="2" stroke-linecap="round" stroke-linejoin="round"/><line x1="75" y1="87" x2="79" y2="91" fill="none" stroke="#333" stroke-width="2" stroke-linecap="round" stroke-linejoin="round"/><line x1="75" y1="91" x2="79" y2="87" fill="none" stroke="#333" stroke-width="2" stroke-linecap="round" stroke-linejoin="round"/><line x1="120" y1="107" x2="124" y2="111" fill="none" stroke="#333" stroke-width="2" stroke-linecap="round" stroke-linejoin="round"/><line x1="120" y1="111" x2="124" y2="107" fill="none" stroke="#333" stroke-width="2" stroke-linecap="round" stroke-linejoin="round"/><polygon points="155,45 165,48 175,62 150,58" fill="none" stroke="#333" stroke-width="2" stroke-linecap="round" stroke-linejoin="round"/><polyline points="140,60 145,65 150,60" fill="none" stroke="#333" stroke-width="2" stroke-linecap="round" stroke-linejoin="round"/><polyline points="135,70 140,75 145,70" fill="none" stroke="#333" stroke-width="2" stroke-linecap="round" stroke-linejoin="round"/></svg>